HIERARCHY
ROOT joint_0
{
	OFFSET 0.000000 0.000000 0.000000
	CHANNELS 6 Xposition Yposition Zposition Zrotation Yrotation Xrotation 
	JOINT joint_1
	{
		OFFSET 4.520508 -1.939880 86.268921
		CHANNELS 3 Zrotation Yrotation Xrotation
		JOINT joint_2
		{
			OFFSET -4.459717 -0.438538 78.934082
			CHANNELS 3 Zrotation Yrotation Xrotation
			JOINT joint_3
			{
				OFFSET -5.197754 -0.781128 78.796997
				CHANNELS 3 Zrotation Yrotation Xrotation
				JOINT joint_4
				{
					OFFSET 2.952026 -3.710571 109.812988
					CHANNELS 3 Zrotation Yrotation Xrotation
					JOINT joint_5
					{
						OFFSET 24.716797 -5.488037 87.903931
						CHANNELS 3 Zrotation Yrotation Xrotation
						End Site
						{
							OFFSET 0.000000 0.000000 0.000000
						}
					}
				}
				JOINT joint_6
				{
					OFFSET -3.154419 -25.484680 60.934937
					CHANNELS 3 Zrotation Yrotation Xrotation
					JOINT joint_7
					{
						OFFSET -28.997192 -144.472229 -32.671997
						CHANNELS 3 Zrotation Yrotation Xrotation
						JOINT joint_8
						{
							OFFSET 19.867676 -18.614380 -249.897949
							CHANNELS 3 Zrotation Yrotation Xrotation
							JOINT joint_9
							{
								OFFSET 5.281982 -13.816650 -264.993042
								CHANNELS 3 Zrotation Yrotation Xrotation
								End Site
								{
									OFFSET 0.000000 0.000000 0.000000
								}
							}
						}
					}
				}
				JOINT joint_10
				{
					OFFSET 6.494995 21.336792 62.257935
					CHANNELS 3 Zrotation Yrotation Xrotation
					JOINT joint_11
					{
						OFFSET 31.106567 145.200745 -27.007935
						CHANNELS 3 Zrotation Yrotation Xrotation
						JOINT joint_12
						{
							OFFSET 29.119141 24.684326 -248.460083
							CHANNELS 3 Zrotation Yrotation Xrotation
							JOINT joint_13
							{
								OFFSET 21.220093 31.248413 -262.703979
								CHANNELS 3 Zrotation Yrotation Xrotation
								End Site
								{
									OFFSET 0.000000 0.000000 0.000000
								}
							}
						}
					}
				}
			}
		}
	}
	JOINT joint_14
	{
		OFFSET -15.458496 -88.861694 -109.593018
		CHANNELS 3 Zrotation Yrotation Xrotation
		JOINT joint_15
		{
			OFFSET -6.193359 6.837952 -506.710999
			CHANNELS 3 Zrotation Yrotation Xrotation
			JOINT joint_16
			{
				OFFSET -35.096680 13.289795 -435.677025
				CHANNELS 3 Zrotation Yrotation Xrotation
				JOINT joint_17
				{
					OFFSET 158.491211 -33.916565 -71.771002
					CHANNELS 3 Zrotation Yrotation Xrotation
					End Site
					{
						OFFSET 0.000000 0.000000 0.000000
					}
				}
			}
		}
	}
	JOINT joint_18
	{
		OFFSET 23.116943 86.574158 -110.082031
		CHANNELS 3 Zrotation Yrotation Xrotation
		JOINT joint_19
		{
			OFFSET -6.125854 -0.283569 -506.757019
			CHANNELS 3 Zrotation Yrotation Xrotation
			JOINT joint_20
			{
				OFFSET -63.240234 11.589966 -432.537994
				CHANNELS 3 Zrotation Yrotation Xrotation
				JOINT joint_21
				{
					OFFSET 156.074219 -41.487305 -73.077999
					CHANNELS 3 Zrotation Yrotation Xrotation
					End Site
					{
						OFFSET 0.000000 0.000000 0.000000
					}
				}
			}
		}
	}
}
MOTION
Frames: 16
Frame Time: 0.016667
-383.774048 920.349915 1141.891968 15.861591 0.550794 0.800555 -0.982189 -1.710074 -1.547146 -0.854518 0.366365 0.295558 -0.890284 -0.319132 -0.195431 -0.137089 2.264886 1.012633 0.000000 0.000000 0.000000 3.430890 -0.292982 -1.013992 0.111844 0.118741 0.715507 0.064998 -1.203973 -1.006617 0.000000 0.000000 0.000000 -1.790692 -0.433580 0.959844 -0.139380 0.137995 -0.277443 -0.519575 -3.120606 -0.778447 0.000000 0.000000 0.000000 -0.209107 0.695656 -1.596155 -0.227086 0.421308 0.580602 -0.187554 -0.659390 -0.226195 0.000000 0.000000 0.000000 -6.081866 1.662265 1.451549 -5.998527 -2.590858 -2.524681 -5.895928 2.400023 -2.113601 0.000000 0.000000 0.000000 
-383.756317 920.513367 1141.854004 15.831274 0.517230 0.794027 -0.973438 -1.686110 -1.555125 -0.845040 0.361970 0.298096 -0.880926 -0.314564 -0.196579 -0.135862 2.264127 1.008295 0.000000 0.000000 0.000000 3.421495 -0.304639 -1.003933 0.113175 0.105635 0.721336 0.065411 -1.213359 -1.014149 0.000000 0.000000 0.000000 -1.791549 -0.434327 0.956934 -0.140767 0.139140 -0.289529 -0.517579 -3.116689 -0.763448 0.000000 0.000000 0.000000 -0.199756 0.722930 -1.603797 -0.217856 0.447089 0.590809 -0.178626 -0.685773 -0.227787 0.000000 0.000000 0.000000 -6.064415 1.680429 1.453891 -5.980727 -2.536263 -2.550834 -5.884514 2.373340 -2.115374 0.000000 0.000000 0.000000 
-383.760986 920.684631 1141.822998 15.800339 0.488062 0.788378 -0.965556 -1.660274 -1.559729 -0.836772 0.356837 0.300171 -0.872737 -0.310498 -0.197429 -0.134995 2.265531 1.005572 0.000000 0.000000 0.000000 3.416199 -0.313550 -0.994725 0.114544 0.095849 0.727890 0.065689 -1.221891 -1.024187 0.000000 0.000000 0.000000 -1.790710 -0.434986 0.955086 -0.142187 0.140571 -0.303007 -0.517759 -3.118528 -0.763076 0.000000 0.000000 0.000000 -0.190097 0.741308 -1.614413 -0.208158 0.478440 0.603367 -0.169143 -0.712002 -0.229096 0.000000 0.000000 0.000000 -6.047530 1.694165 1.452550 -5.963711 -2.484787 -2.571318 -5.872983 2.348697 -2.116557 0.000000 0.000000 0.000000 
-383.785339 920.858948 1141.796021 15.770001 0.462300 0.783132 -0.958811 -1.632578 -1.560308 -0.830076 0.350461 0.300693 -0.865974 -0.304891 -0.197710 -0.134267 2.266268 1.003126 0.000000 0.000000 0.000000 3.413286 -0.320657 -0.986376 0.116005 0.087983 0.735458 0.065759 -1.228199 -1.036021 0.000000 0.000000 0.000000 -1.787770 -0.436607 0.954018 -0.143824 0.141151 -0.318220 -0.519316 -3.124183 -0.771713 0.000000 0.000000 0.000000 -0.180537 0.753459 -1.626400 -0.198456 0.512430 0.616785 -0.159612 -0.737246 -0.230173 0.000000 0.000000 0.000000 -6.031766 1.704696 1.448587 -5.947983 -2.436764 -2.586581 -5.861850 2.325662 -2.117504 0.000000 0.000000 0.000000 
-383.826202 921.028748 1141.772949 15.741351 0.439158 0.778400 -0.952515 -1.602918 -1.558826 -0.824128 0.344197 0.299633 -0.859744 -0.299116 -0.196073 -0.133898 2.263776 1.001172 0.000000 0.000000 0.000000 3.409089 -0.325708 -0.976526 0.117146 0.082473 0.741794 0.065774 -1.233084 -1.045838 0.000000 0.000000 0.000000 -1.783911 -0.439138 0.948528 -0.145447 0.139403 -0.331926 -0.521037 -3.129799 -0.782203 0.000000 0.000000 0.000000 -0.171198 0.763555 -1.638429 -0.188989 0.542492 0.629100 -0.150272 -0.758953 -0.230580 0.000000 0.000000 0.000000 -6.016951 1.712811 1.443611 -5.933277 -2.392359 -2.599572 -5.851255 2.305227 -2.118013 0.000000 0.000000 0.000000 
-383.883575 921.194031 1141.750977 15.715545 0.418319 0.773709 -0.947409 -1.570300 -1.554963 -0.819586 0.337688 0.298991 -0.854996 -0.292315 -0.195340 -0.134229 2.256200 1.000512 0.000000 0.000000 0.000000 3.405164 -0.328867 -0.964951 0.117835 0.079546 0.747034 0.065908 -1.238305 -1.051463 0.000000 0.000000 0.000000 -1.776182 -0.443455 0.939591 -0.147231 0.134171 -0.344582 -0.522836 -3.135244 -0.793681 0.000000 0.000000 0.000000 -0.162702 0.772624 -1.649936 -0.180410 0.567419 0.640435 -0.141715 -0.776621 -0.230478 0.000000 0.000000 0.000000 -6.003495 1.719138 1.438603 -5.919953 -2.352569 -2.611149 -5.841618 2.287990 -2.118120 0.000000 0.000000 0.000000 
-383.957336 921.353760 1141.730957 15.692060 0.399352 0.769624 -0.943258 -1.533220 -1.549911 -0.816185 0.329192 0.298272 -0.851357 -0.285273 -0.194294 -0.135126 2.246324 1.001289 0.000000 0.000000 0.000000 3.400748 -0.329907 -0.951986 0.118300 0.078940 0.752161 0.065957 -1.241526 -1.054931 0.000000 0.000000 0.000000 -1.766040 -0.448795 0.927688 -0.149093 0.126729 -0.356697 -0.524697 -3.140238 -0.806535 0.000000 0.000000 0.000000 -0.154849 0.780629 -1.661467 -0.172494 0.588329 0.650574 -0.133784 -0.791643 -0.230095 0.000000 0.000000 0.000000 -5.991303 1.723905 1.432577 -5.907952 -2.316651 -2.620570 -5.832810 2.273227 -2.117958 0.000000 0.000000 0.000000 
-384.037231 921.507568 1141.713989 15.667934 0.383530 0.766398 -0.939743 -1.500056 -1.544733 -0.813332 0.322524 0.298825 -0.848392 -0.279257 -0.193666 -0.135240 2.239724 0.999926 0.000000 0.000000 0.000000 3.398535 -0.327833 -0.937886 0.118840 0.081747 0.759315 0.065732 -1.240980 -1.059006 0.000000 0.000000 0.000000 -1.755258 -0.451688 0.912972 -0.150976 0.121188 -0.369617 -0.526105 -3.145071 -0.814880 0.000000 0.000000 0.000000 -0.146571 0.787900 -1.672296 -0.164205 0.602003 0.657676 -0.125560 -0.801841 -0.228546 0.000000 0.000000 0.000000 -5.979421 1.726835 1.426273 -5.896280 -2.285270 -2.629479 -5.824105 2.260925 -2.117186 0.000000 0.000000 0.000000 
-384.117920 921.653137 1141.697021 15.643446 0.370307 0.764211 -0.936823 -1.471022 -1.539211 -0.811122 0.316131 0.298355 -0.845980 -0.272987 -0.192527 -0.134573 2.236294 0.996447 0.000000 0.000000 0.000000 3.397005 -0.321993 -0.923175 0.119711 0.087604 0.771001 0.065046 -1.233905 -1.063882 0.000000 0.000000 0.000000 -1.743906 -0.451732 0.895658 -0.152973 0.118252 -0.384477 -0.526433 -3.148156 -0.814458 0.000000 0.000000 0.000000 -0.137848 0.796457 -1.681450 -0.155545 0.606331 0.659676 -0.117191 -0.807252 -0.225907 0.000000 0.000000 0.000000 -5.968229 1.729050 1.419766 -5.885298 -2.259235 -2.637906 -5.815822 2.251041 -2.115963 0.000000 0.000000 0.000000 
-384.204651 921.791687 1141.682983 15.619058 0.359704 0.763120 -0.935151 -1.444904 -1.533342 -0.810168 0.311144 0.297899 -0.844885 -0.267226 -0.192070 -0.133355 2.235386 0.991514 0.000000 0.000000 0.000000 3.399273 -0.313565 -0.906161 0.120621 0.096993 0.784486 0.064090 -1.223041 -1.069296 0.000000 0.000000 0.000000 -1.729998 -0.449830 0.876487 -0.155096 0.116647 -0.400630 -0.526114 -3.150443 -0.808409 0.000000 0.000000 0.000000 -0.129175 0.805029 -1.690051 -0.146992 0.603345 0.658580 -0.109005 -0.808409 -0.222441 0.000000 0.000000 0.000000 -5.957436 1.729986 1.412847 -5.874725 -2.238003 -2.645991 -5.807733 2.243853 -2.114110 0.000000 0.000000 0.000000 
-384.300110 921.927979 1141.671021 15.593374 0.352959 0.763318 -0.933002 -1.422171 -1.525879 -0.808829 0.306635 0.297538 -0.843415 -0.261762 -0.191517 -0.131733 2.236679 0.985562 0.000000 0.000000 0.000000 3.401081 -0.303496 -0.889552 0.121651 0.107546 0.799247 0.062894 -1.208999 -1.075726 0.000000 0.000000 0.000000 -1.717585 -0.446649 0.857390 -0.157347 0.117244 -0.419805 -0.525792 -3.152671 -0.802595 0.000000 0.000000 0.000000 -0.119964 0.809705 -1.700387 -0.137881 0.598068 0.657759 -0.100191 -0.807620 -0.218273 0.000000 0.000000 0.000000 -5.946569 1.727601 1.405217 -5.864126 -2.219991 -2.654158 -5.799538 2.238312 -2.111764 0.000000 0.000000 0.000000 
-384.407288 922.061401 1141.662964 15.566802 0.351028 0.765552 -0.931165 -1.402187 -1.516662 -0.807999 0.302114 0.295995 -0.842324 -0.257863 -0.189743 -0.129902 2.241403 0.979568 0.000000 0.000000 0.000000 3.405097 -0.291796 -0.873271 0.122766 0.119911 0.815099 0.061474 -1.192207 -1.083519 0.000000 0.000000 0.000000 -1.705163 -0.441931 0.839118 -0.159832 0.120471 -0.443424 -0.525332 -3.154335 -0.796452 0.000000 0.000000 0.000000 -0.110789 0.809370 -1.714140 -0.128786 0.590311 0.659364 -0.091109 -0.804874 -0.213565 0.000000 0.000000 0.000000 -5.935925 1.720908 1.396635 -5.853804 -2.206244 -2.663128 -5.791595 2.235909 -2.108693 0.000000 0.000000 0.000000 
-384.523346 922.193542 1141.656982 15.538927 0.352811 0.768844 -0.929598 -1.386008 -1.504604 -0.807632 0.299197 0.293985 -0.841737 -0.254472 -0.188787 -0.127632 2.248623 0.972500 0.000000 0.000000 0.000000 3.411822 -0.278862 -0.856787 0.123950 0.133920 0.832031 0.059855 -1.172879 -1.092347 0.000000 0.000000 0.000000 -1.690969 -0.436087 0.821598 -0.162575 0.125377 -0.470614 -0.524813 -3.155914 -0.789912 0.000000 0.000000 0.000000 -0.101182 0.805230 -1.729600 -0.119240 0.580408 0.661570 -0.081483 -0.800853 -0.208337 0.000000 0.000000 0.000000 -5.925094 1.711339 1.387468 -5.843331 -2.196250 -2.672189 -5.783414 2.235441 -2.104993 0.000000 0.000000 0.000000 
-384.646881 922.321472 1141.654053 15.510422 0.354985 0.772791 -0.928267 -1.368641 -1.493038 -0.807476 0.294778 0.292356 -0.841295 -0.249436 -0.186792 -0.125612 2.253351 0.965785 0.000000 0.000000 0.000000 3.417475 -0.266719 -0.839383 0.124887 0.147574 0.846740 0.058273 -1.153917 -1.100316 0.000000 0.000000 0.000000 -1.677722 -0.429567 0.804034 -0.165130 0.131163 -0.497831 -0.524724 -3.157871 -0.787775 0.000000 0.000000 0.000000 -0.091328 0.799281 -1.745233 -0.109392 0.572065 0.662894 -0.071661 -0.795939 -0.202829 0.000000 0.000000 0.000000 -5.914072 1.701237 1.377567 -5.832693 -2.187151 -2.680791 -5.775005 2.236786 -2.100705 0.000000 0.000000 0.000000 
-384.778198 922.447266 1141.651001 15.480261 0.356457 0.777214 -0.927103 -1.348502 -1.479351 -0.807764 0.290721 0.288869 -0.841171 -0.245577 -0.184361 -0.123233 2.256704 0.957485 0.000000 0.000000 0.000000 3.422834 -0.254749 -0.821555 0.125687 0.161316 0.860332 0.056803 -1.136804 -1.108353 0.000000 0.000000 0.000000 -1.663661 -0.422039 0.788770 -0.167571 0.138604 -0.526424 -0.525566 -3.161573 -0.793258 0.000000 0.000000 0.000000 -0.081016 0.791767 -1.760895 -0.099009 0.567268 0.663039 -0.061500 -0.791377 -0.197243 0.000000 0.000000 0.000000 -5.902735 1.692490 1.366316 -5.821771 -2.180017 -2.687679 -5.766046 2.238710 -2.096011 0.000000 0.000000 0.000000 
-384.917084 922.569885 1141.651001 15.449255 0.358028 0.782027 -0.925189 -1.326592 -1.464988 -0.807399 0.284987 0.284964 -0.840290 -0.240707 -0.181000 -0.121219 2.259420 0.950305 0.000000 0.000000 0.000000 3.424630 -0.242974 -0.802458 0.126213 0.174870 0.871401 0.055400 -1.120503 -1.115625 0.000000 0.000000 0.000000 -1.652732 -0.413929 0.773442 -0.169830 0.147260 -0.555158 -0.526851 -3.165816 -0.802956 0.000000 0.000000 0.000000 -0.070120 0.782785 -1.776527 -0.087988 0.563964 0.662140 -0.050835 -0.786029 -0.191260 0.000000 0.000000 0.000000 -5.891409 1.683786 1.354235 -5.810889 -2.174210 -2.693453 -5.756959 2.242946 -2.090647 0.000000 0.000000 0.000000 
